<?xml version="1.0" standalone="no"?>
<!DOCTYPE svg PUBLIC "-//W3C//DTD SVG 20010904//EN"
 "http://www.w3.org/TR/2001/REC-SVG-20010904/DTD/svg10.dtd">
<svg version="1.0" xmlns="http://www.w3.org/2000/svg"
 width="180.000000pt" height="180.000000pt" viewBox="0 0 180.000000 180.000000"
 preserveAspectRatio="xMidYMid meet">
<metadata>
Created by potrace 1.14, written by Peter Selinger 2001-2017
</metadata>
<g transform="translate(0.000000,180.000000) scale(0.100000,-0.100000)"
fill="#000000" stroke="none">
<path d="M0 900 l0 -900 900 0 900 0 0 900 0 900 -900 0 -900 0 0 -900z m1101
480 c110 -33 232 -124 244 -181 7 -32 -16 -83 -44 -99 -11 -5 -34 -10 -51 -10
-40 0 -90 47 -90 85 0 31 24 81 42 88 19 6 -84 55 -155 73 -125 33 -229 4
-316 -85 -81 -83 -141 -245 -141 -381 0 -195 102 -392 238 -456 51 -24 64 -26
142 -22 47 3 102 13 123 21 l37 16 0 185 c0 173 -1 187 -20 206 -11 11 -27 20
-35 20 -10 0 -15 10 -15 30 l0 30 130 0 130 0 0 -30 c0 -23 -4 -30 -20 -30
l-20 0 20 -20 c18 -18 20 -33 20 -178 l0 -158 -48 -37 c-170 -129 -384 -150
-573 -55 -264 132 -369 449 -237 718 60 124 198 237 335 275 76 21 229 19 304
-5z"/>
</g>
</svg>
